<?xml version="1.0" encoding="UTF-8"?>
<svg id="Schrift" xmlns="http://www.w3.org/2000/svg" viewBox="0 0 4928.2129612562 958.3175450055">
  <defs>
    <style>
      .cls-1 {
        fill: #fff;
      }
    </style>
  </defs>
  <path class="cls-1" d="M4.1376714767,922.4641629914h103.4128183894L350.234336747,48.2615683561h-103.4176464775l5.518504665-19.3123522834h344.7158320821l-5.5136765769,19.3123522834h-111.6881613428l-242.6838468809,874.2025946353h199.9359551017c170.9819109408,0,313.0049496328-114.4449996313,369.5370328543-319.8994593979h20.6835292955l-103.4128183894,339.2021555052H0l4.1376714767-19.3026961072Z"/>
  <path class="cls-1" d="M882.4924218529,728.0370563786c0-77.2107844289,28.9588722489-159.9449016109,85.4909554704-227.5091660743,71.7019359401-85.4861273823,143.4038718802-124.1011757729,242.6790187929-124.1011757729,119.9635042962,0,199.9359551017,89.6286269471,199.9359551017,227.5188222504,0,81.3532839937-28.9540441608,162.7065679874-85.4861273823,230.2708324508-68.9450976516,82.734117182-144.7847050684,124.1011757729-230.2756605389,124.1011757729-128.2340191616,0-212.3441414437-92.3902933237-212.3441414437-230.2804886269ZM1054.8503378939,526.7250961767c-55.1512500332,117.2066660078-77.215612517,233.0324988273-77.215612517,288.1885769486,0,81.3532839937,39.9862254027,126.8531859733,113.0689945311,126.8531859733,60.6697546982,0,106.1696566778-44.1287249675,148.9175484571-133.7476957385,53.775244933-111.6929894309,75.8396074168-230.2708324508,75.8396074168-292.3214203373,0-82.734117182-35.8533820141-122.7203425847-111.6929894309-122.7203425847-64.8025980868,0-107.5504898661,44.1190687914-148.9175484571,133.7476957385Z"/>
  <path class="cls-1" d="M1668.4713631696,696.3261739293c-51.0184066446-42.7478917792-85.4909554704-75.8396074168-85.4909554704-139.2613723154,0-95.142303524,82.734117182-180.6380870825,197.1791168132-180.6380870825,93.7662984238,0,158.5737245988,44.1287249675,158.5737245988,100.6559801009,0,37.2342152023-27.5780390607,64.812254263-64.8074261749,64.812254263s-66.1882593632-26.1972058724-66.1882593632-60.6697546982c0-42.7478917792,46.8807351679-56.5369113096,46.8807351679-60.6697546982,0-8.2753429534-23.4403675839-24.8260288603-64.8074261749-24.8260288603-74.4587742285,0-124.0963476849,46.890391344-124.0963476849,107.5601460422,0,52.3944117448,49.6375734563,82.7244610058,114.4449996313,132.3668625502,53.775244933,41.367058591,86.8717886587,71.7067640282,86.8717886587,143.4038718802,0,93.7614703358-103.4176464775,177.876420706-237.165342216,177.876420706-106.1744847659,0-182.0140921827-63.4314210747-182.0140921827-135.1285289268,0-44.1287249675,33.0917156376-81.3532839937,73.0827691284-81.3532839937,41.367058591,0,68.9402695636,26.1972058724,68.9402695636,60.6697546982,0,22.0547063076-16.5458578188,44.1190687914-44.1238968794,57.9080883217-23.4403675839,11.03700933-44.1238968794,9.6561761417-44.1238968794,17.9315190951,0,11.0273531538,49.6424015444,56.5272551334,119.9635042962,56.5272551334,82.734117182,0,137.8853672152-49.6327453683,137.8853672152-110.3121562426,0-56.5272551334-39.9862254027-84.1052941941-91.0046320473-126.8531859733Z"/>
  <path class="cls-1" d="M2483.4043486472,922.4641629914h103.4176464775l241.2981856046-874.2025946353h-102.0368132892c-133.7476957385,0-231.646837551,95.142303524-288.1789207725,281.2844110073h-19.3026961072l82.7292890939-300.5967632907h788.7116391648l-82.7244610058,300.5967632907h-23.445195672c13.7890195303-53.7752449331,22.0643624838-99.2751469127,22.0643624838-137.8901953033,0-103.4079903013-57.9177444978-143.394215704-179.2572538943-143.394215704h-68.9450976516l-242.6790187929,874.2025946353h113.064166443l-5.5136765769,19.3026961072h-344.7158320821l5.5136765769-19.3026961072Z"/>
  <path class="cls-1" d="M3480.3755667479,377.8075477196c42.7382356031,0,67.5642644634,23.445195672,67.5642644634,64.812254263,0,38.6053922145-27.5780390607,67.5642644634-64.812254263,67.5642644634-31.7108824493,0-56.5369113096-26.2068620485-56.5369113096-53.7752449331,0-13.7890195303,9.6561761417-26.2068620485,9.6561761417-37.2342152023q0-1.3808331883-2.7616663765-1.3808331883c-41.3574024148,0-137.8805391271,91.0094601354-180.6284309064,230.2708324508l-89.6286269471,293.7022535255h-107.5504898661l164.0874011757-529.4867625532h-81.3532839937l5.5136765769-19.3026961072h52.3944117448c42.7478917792,0,91.0094601354-1.3808331883,142.0230386919-16.5506859069l-49.6327453683,146.1655382567c64.8025980869-96.5231367123,125.4723527851-144.7847050684,191.6654402363-144.7847050684Z"/>
  <path class="cls-1" d="M3594.8205663792,412.2800965454l5.5233327531-19.3026961072h53.775244933c42.7382356031,0,89.6286269471-1.3808331883,140.6422055037-16.5506859069l-130.9956855381,434.3444590292c-11.0273531538,34.4725488258-15.1601965424,59.2985776861-15.1601965424,71.7067640282,0,24.8163726841,12.4081863421,37.2245590262,35.8437258379,37.2245590262,37.2342152024,0,77.2204406051-38.6053922145,139.2710284915-108.9313230544l13.7890195303,11.0370093299c-71.7067640282,88.2477937589-130.9956855381,133.7476957385-197.1791168132,133.7476957385-56.5369113096,0-92.3902933236-34.4725488258-92.3902933236-91.0094601354,0-27.5780390606,9.6561761417-60.6697546982,22.0643624837-100.6559801009l107.5504898661-351.6103418472h-82.734117182ZM3849.9174276902,0c27.5780390607,0,51.0135785565,26.1972058724,51.0135785565,62.0505878865,0,46.8807351679-31.7108824493,82.7244610058-68.9354414755,82.7244610058-27.5780390607,0-51.0232347327-24.8163726841-51.0232347327-59.28892151,0-46.8807351679,33.0917156376-85.4861273823,68.9450976516-85.4861273823Z"/>
  <path class="cls-1" d="M3871.9721339978,728.0370563786c0-77.2107844289,28.9588722489-159.9449016109,85.4861273823-227.5091660743,71.7067640282-85.4861273823,143.4038718802-124.1011757729,242.688674969-124.1011757729,119.9586762082,0,199.9311270136,89.6286269471,199.9311270136,227.5188222504,0,81.3532839937-28.9492160728,162.7065679874-85.4861273824,230.2708324508-68.9450976516,82.734117182-144.7847050684,124.1011757729-230.2708324508,124.1011757729-128.2340191616,0-212.3489695318-92.3902933237-212.3489695318-230.2804886269ZM4044.3348781269,526.7250961767c-55.1560781213,117.2066660078-77.2204406051,233.0324988273-77.2204406051,288.1885769486,0,81.3532839937,39.9862254027,126.8531859733,113.064166443,126.8531859733,60.6697546982,0,106.179312854-44.1287249675,148.9175484571-133.7476957385,53.7752449331-111.6929894309,75.8396074168-230.2708324508,75.8396074168-292.3214203373,0-82.734117182-35.8437258379-122.7203425847-111.6833332547-122.7203425847-64.812254263,0-107.5504898661,44.1190687914-148.9175484571,133.7476957385Z"/>
  <path class="cls-1" d="M4657.9559034027,696.3261739293c-51.0232347327-42.7478917792-85.4957835585-75.8396074168-85.4957835585-139.2613723154,0-95.142303524,82.734117182-180.6380870825,197.1791168132-180.6380870825,93.7614703358,0,158.5737245988,44.1287249675,158.5737245988,100.6559801009,0,37.2342152023-27.5780390607,64.812254263-64.812254263,64.812254263-37.2245590262,0-66.1834312751-26.1972058724-66.1834312751-60.6697546982,0-42.7478917792,46.8807351679-56.5369113096,46.8807351679-60.6697546982,0-8.2753429534-23.4355394959-24.8260288603-64.8025980868-24.8260288603-74.4587742285,0-124.101175773,46.890391344-124.101175773,107.5601460422,0,52.3944117448,49.6424015444,82.7244610058,114.4449996313,132.3668625502,53.7752449331,41.367058591,86.8669605706,71.7067640282,86.8669605706,143.4038718802,0,93.7614703358-103.4079903013,177.876420706-237.1653422159,177.876420706-106.1696566778,0-182.0092640946-63.4314210747-182.0092640946-135.1285289268,0-44.1287249675,33.0917156376-81.3532839937,73.0779410403-81.3532839937,41.367058591,0,68.9450976516,26.1972058724,68.9450976516,60.6697546982,0,22.0547063076-16.5410297307,44.1190687914-44.1190687914,57.9080883217-23.445195672,11.03700933-44.1287249675,9.6561761417-44.1287249675,17.9315190951,0,11.0273531538,49.6424015444,56.5272551334,119.9683323843,56.5272551334,82.7244610058,0,137.8805391271-49.6327453683,137.8805391271-110.3121562426,0-56.5272551334-39.9862254027-84.1052941941-90.9998039592-126.8531859733Z"/>
</svg>